# xmcd
#
# Track frame offsets: 
#        150
#        18525
#        36147
#        46797
#        61422
#        74022
#        94045
#        126297
#        145945
#        162070
#        177897
#        199047
#        219682
#        226820
#
# Disc length: 3214 seconds
#
# Revision: 1
# Processed by: cddbd v1.5.2PL0 Copyright (c) Steve Scherf et al.
# Submitted via: ExactAudioCopy v0.99pb1
#
DISCID=c40c8c0e
DTITLE=Die Irrlichter - Goldstück
DYEAR=2008
DGENRE=Pop-Folk
TTITLE0=Falalan
TTITLE1=Dreizehn Feen
TTITLE2=Selleriesalat
TTITLE3=La Marmotte
TTITLE4=Tarantella
TTITLE5=Unter den Toren
TTITLE6=Zwei Schwestern
TTITLE7=Flatworld
TTITLE8=Wan si dahs
TTITLE9=TANZ MIT MIR
TTITLE10=Zemer Atik
TTITLE11=Serail
TTITLE12=Goldstück 1
TTITLE13=Goldstück 2
EXTD=
EXTT0=
EXTT1=
EXTT2=
EXTT3=
EXTT4=
EXTT5=
EXTT6=
EXTT7=
EXTT8=
EXTT9=
EXTT10=
EXTT11=
EXTT12=
EXTT13=
PLAYORDER=
